<?xml version="1.0" encoding="utf-8"?>
<!-- Generator: Adobe Illustrator 14.0.0, SVG Export Plug-In . SVG Version: 6.00 Build 43363)  -->
<!DOCTYPE svg PUBLIC "-//W3C//DTD SVG 1.1//EN" "http://www.w3.org/Graphics/SVG/1.1/DTD/svg11.dtd">
<svg version="1.1" id="Ebene_1" xmlns="http://www.w3.org/2000/svg" xmlns:xlink="http://www.w3.org/1999/xlink" x="0px" y="0px"
	 width="607.47px" height="242.988px" viewBox="0 0 607.47 242.988" enable-background="new 0 0 607.47 242.988"
	 xml:space="preserve">
<g>
	<g>
		<text transform="matrix(1 0 0 1 36.5967 91.6201)" font-family="'Lato-Regular'" font-size="88">Lunch </text>
		
			<text transform="matrix(1 0 0 1 36.5967 91.6201)" fill="none" stroke="#FFFFFF" stroke-width="9" font-family="'Lato-Regular'" font-size="88">Lunch </text>
	</g>
	<text transform="matrix(1 0 0 1 36.5967 91.6177)" font-family="'Lato-Regular'" font-size="88">Lunch </text>
	<g>
		<text transform="matrix(1 0 0 1 145.8975 166.5918)" font-family="'Gradies'" font-size="95.2089">Roulette</text>
		
			<text transform="matrix(1 0 0 1 145.8975 166.5918)" fill="none" stroke="#FFFFFF" stroke-width="9" font-family="'Gradies'" font-size="95.2089">Roulette</text>
	</g>
	<g>
		<text transform="matrix(1 0 0 1 145.8975 166.5938)" font-family="'Gradies'" font-size="95.2089">Roulette</text>
	</g>
	<g>
		<g>
			<g>
				<path d="M489.126,154.507l-20.117,42.568c0,0-3.131,4.655-7.889,3.04c-4.759-1.614-11.315-5.442-11.315-5.442
					s-2.788-3.468-1.699-7.064c1.09-3.597,20.421-43.141,20.421-43.141s-4.425-4.726-3.054-9.54
					c1.371-4.815,17.95-38.645,17.95-38.645s1.477-2.696,5.031-0.953c2.479,1.216,1.979,3.922,1.511,4.84
					c-0.569,1.114-11.652,23.961-11.26,25.365c0.421,1.508,2.737,3.97,5.686,1.765c1.555-1.163,11.727-22.256,12.488-23.663
					c0.482-0.889,1.327-3.342,5.157-1.57c2.586,1.197,2.031,3.013,1.835,4.123c-0.413,2.342-10.938,23.28-11.332,24.984
					c-0.395,1.706,1.371,3.397,2.504,3.596c2.271,0.397,3.917-0.568,4.969-2.893c1.05-2.322,10-21.036,10.713-21.897
					c0.712-0.862,2.625-2.472,5.136-1.121c2.319,1.248,1.981,3.411,1.226,5.288c-0.652,1.624-14.461,31.102-16.638,34.961
					C498.272,152.966,493.01,155.469,489.126,154.507z"/>
				<path d="M564.909,132.636l-41.593,87.114c0,0-1.951,4.552-7.433,3.283c-5.113-1.184-10.91-4.963-10.91-4.963
					s-4.051-3.009-2.112-8.06c1.524-3.97,13.783-28.5,13.783-28.5s-11.178-5.025-12.426-5.956c-1.249-0.931-0.837-1.604-0.668-2.336
					c0.17-0.73,19.953-41.032,19.953-41.032s3.75-8.157,11.085-11.573c4.12-1.919,9.384-1.182,13.723,0.712
					c1.394,0.608,14.398,6.952,15.531,7.599C564.977,129.572,565.423,131.559,564.909,132.636z"/>
			</g>
			<g>
				<path fill="none" stroke="#FFFFFF" stroke-width="9" d="M489.126,154.507l-20.117,42.568c0,0-3.131,4.655-7.889,3.04
					c-4.759-1.614-11.315-5.442-11.315-5.442s-2.788-3.468-1.699-7.064c1.09-3.597,20.421-43.141,20.421-43.141
					s-4.425-4.726-3.054-9.54c1.371-4.815,17.95-38.645,17.95-38.645s1.477-2.696,5.031-0.953c2.479,1.216,1.979,3.922,1.511,4.84
					c-0.569,1.114-11.652,23.961-11.26,25.365c0.421,1.508,2.737,3.97,5.686,1.765c1.555-1.163,11.727-22.256,12.488-23.663
					c0.482-0.889,1.327-3.342,5.157-1.57c2.586,1.197,2.031,3.013,1.835,4.123c-0.413,2.342-10.938,23.28-11.332,24.984
					c-0.395,1.706,1.371,3.397,2.504,3.596c2.271,0.397,3.917-0.568,4.969-2.893c1.05-2.322,10-21.036,10.713-21.897
					c0.712-0.862,2.625-2.472,5.136-1.121c2.319,1.248,1.981,3.411,1.226,5.288c-0.652,1.624-14.461,31.102-16.638,34.961
					C498.272,152.966,493.01,155.469,489.126,154.507z"/>
				<path fill="none" stroke="#FFFFFF" stroke-width="9" d="M564.909,132.636l-41.593,87.114c0,0-1.951,4.552-7.433,3.283
					c-5.113-1.184-10.91-4.963-10.91-4.963s-4.051-3.009-2.112-8.06c1.524-3.97,13.783-28.5,13.783-28.5s-11.178-5.025-12.426-5.956
					c-1.249-0.931-0.837-1.604-0.668-2.336c0.17-0.73,19.953-41.032,19.953-41.032s3.75-8.157,11.085-11.573
					c4.12-1.919,9.384-1.182,13.723,0.712c1.394,0.608,14.398,6.952,15.531,7.599C564.977,129.572,565.423,131.559,564.909,132.636z
					"/>
			</g>
		</g>
		<g>
			<g>
				<path d="M489.088,154.497l-20.117,42.568c0,0-3.131,4.655-7.889,3.041c-4.76-1.615-11.315-5.441-11.315-5.441
					s-2.79-3.468-1.7-7.066c1.09-3.597,20.421-43.141,20.421-43.141s-4.425-4.726-3.054-9.539
					c1.371-4.815,17.95-38.645,17.95-38.645s1.478-2.696,5.032-0.953c2.478,1.215,1.979,3.923,1.51,4.84
					c-0.568,1.113-11.652,23.96-11.26,25.364c0.42,1.508,2.737,3.97,5.686,1.765c1.555-1.163,11.727-22.256,12.489-23.663
					c0.481-0.889,1.327-3.342,5.156-1.571c2.586,1.198,2.03,3.013,1.834,4.123c-0.412,2.342-10.937,23.281-11.331,24.985
					s1.371,3.396,2.504,3.595c2.271,0.397,3.916-0.569,4.968-2.892c1.051-2.323,10.002-21.037,10.714-21.898
					c0.713-0.861,2.625-2.472,5.135-1.121c2.32,1.247,1.983,3.41,1.228,5.288c-0.653,1.624-14.463,31.103-16.638,34.961
					C498.233,152.958,492.972,155.46,489.088,154.497z"/>
				<path d="M564.87,132.627l-41.592,87.113c0,0-1.952,4.553-7.433,3.285c-5.114-1.185-10.91-4.964-10.91-4.964
					s-4.052-3.008-2.113-8.06c1.524-3.97,13.782-28.5,13.782-28.5s-11.176-5.025-12.426-5.956c-1.248-0.931-0.835-1.605-0.667-2.337
					c0.17-0.73,19.953-41.03,19.953-41.03s3.751-8.158,11.085-11.574c4.121-1.919,9.384-1.182,13.723,0.711
					c1.394,0.608,14.398,6.953,15.532,7.6C564.938,129.563,565.384,131.55,564.87,132.627z"/>
			</g>
			<g>
				<path fill="none" stroke="#1A171B" d="M489.088,154.497l-20.117,42.568c0,0-3.131,4.655-7.889,3.041
					c-4.76-1.615-11.315-5.441-11.315-5.441s-2.79-3.468-1.7-7.066c1.09-3.597,20.421-43.141,20.421-43.141
					s-4.425-4.726-3.054-9.539c1.371-4.815,17.95-38.645,17.95-38.645s1.478-2.696,5.032-0.953c2.478,1.215,1.979,3.923,1.51,4.84
					c-0.568,1.113-11.652,23.96-11.26,25.364c0.42,1.508,2.737,3.97,5.686,1.765c1.555-1.163,11.727-22.256,12.489-23.663
					c0.481-0.889,1.327-3.342,5.156-1.571c2.586,1.198,2.03,3.013,1.834,4.123c-0.412,2.342-10.937,23.281-11.331,24.985
					s1.371,3.396,2.504,3.595c2.271,0.397,3.916-0.569,4.968-2.892c1.051-2.323,10.002-21.037,10.714-21.898
					c0.713-0.861,2.625-2.472,5.135-1.121c2.32,1.247,1.983,3.41,1.228,5.288c-0.653,1.624-14.463,31.103-16.638,34.961
					C498.233,152.958,492.972,155.46,489.088,154.497z"/>
				<path fill="none" stroke="#1A171B" d="M564.87,132.627l-41.592,87.113c0,0-1.952,4.553-7.433,3.285
					c-5.114-1.185-10.91-4.964-10.91-4.964s-4.052-3.008-2.113-8.06c1.524-3.97,13.782-28.5,13.782-28.5s-11.176-5.025-12.426-5.956
					c-1.248-0.931-0.835-1.605-0.667-2.337c0.17-0.73,19.953-41.03,19.953-41.03s3.751-8.158,11.085-11.574
					c4.121-1.919,9.384-1.182,13.723,0.711c1.394,0.608,14.398,6.953,15.532,7.6C564.938,129.563,565.384,131.55,564.87,132.627z"/>
			</g>
		</g>
	</g>
</g>
</svg>
